<?xml version="1.0" standalone="no"?>
<!DOCTYPE svg PUBLIC "-//W3C//DTD SVG 20010904//EN"
 "http://www.w3.org/TR/2001/REC-SVG-20010904/DTD/svg10.dtd">
<svg version="1.0" xmlns="http://www.w3.org/2000/svg"
 width="1011.000000pt" height="639.000000pt" viewBox="0 0 1011.000000 639.000000"
 preserveAspectRatio="xMidYMid meet">

<g transform="translate(0.000000,639.000000) scale(0.100000,-0.100000)"
fill="#000000" stroke="none">
<path d="M4100 5614 c-3747 -1985 -3565 -1888 -3537 -1895 22 -6 109 -50 472
-239 61 -32 173 -90 250 -130 77 -40 199 -103 270 -140 128 -67 265 -138 540
-280 77 -40 194 -101 260 -135 203 -105 362 -188 540 -280 94 -48 211 -109
260 -135 50 -26 162 -85 250 -130 88 -45 210 -108 270 -140 130 -68 304 -158
580 -300 266 -137 271 -141 284 -217 l6 -32 1110 700 c2673 1688 3961 2503
3978 2517 9 8 17 24 17 35 0 28 -30 74 -57 86 -13 6 -914 342 -2002 746 -1187
441 -1992 735 -2012 735 -26 0 -384 -185 -1479 -766z"/>
<path d="M9360 3569 c0 -5 14 -37 31 -70 17 -34 29 -62 27 -64 -2 -2 -1071
-712 -2375 -1579 l-2373 -1577 -1857 1032 c-1022 568 -1871 1044 -1886 1058
-117 107 -265 496 -312 821 -16 104 -18 310 -4 359 6 23 -28 24 -50 2 -34 -34
-46 -97 -45 -236 2 -150 26 -301 78 -481 61 -210 156 -413 233 -501 19 -22
625 -366 1933 -1098 1406 -787 1913 -1075 1937 -1101 18 -20 33 -49 35 -65 3
-31 -169 -145 4435 2947 295 198 509 348 511 358 6 30 -7 65 -31 80 -39 26
-287 125 -287 115z"/>
</g>
</svg>
